<mxfile host="app.diagrams.net" modified="2023-09-07T14:23:40.689Z" agent="Mozilla/5.0 (Windows NT 10.0; Win64; x64) AppleWebKit/537.36 (KHTML, like Gecko) Chrome/116.0.0.0 Safari/537.36 Edg/116.0.1938.69" etag="ohAL4QDRtg6b6QfkFvyQ" version="21.3.8" type="device">
  <diagram name="Page-1" id="PDvvRp-OfwHDWWfL8AgT">
    <mxGraphModel dx="1426" dy="769" grid="1" gridSize="10" guides="1" tooltips="1" connect="1" arrows="1" fold="1" page="1" pageScale="1" pageWidth="1600" pageHeight="1200" math="0" shadow="0">
      <root>
        <mxCell id="0" />
        <mxCell id="1" parent="0" />
        <mxCell id="fLW8FLOm7NrX6haBpgMr-3" style="edgeStyle=orthogonalEdgeStyle;rounded=0;orthogonalLoop=1;jettySize=auto;html=1;" edge="1" parent="1" source="fLW8FLOm7NrX6haBpgMr-1" target="fLW8FLOm7NrX6haBpgMr-2">
          <mxGeometry relative="1" as="geometry" />
        </mxCell>
        <mxCell id="fLW8FLOm7NrX6haBpgMr-1" value="" style="rounded=0;whiteSpace=wrap;html=1;" vertex="1" parent="1">
          <mxGeometry x="600" y="20" width="120" height="60" as="geometry" />
        </mxCell>
        <mxCell id="fLW8FLOm7NrX6haBpgMr-2" value="" style="rounded=0;whiteSpace=wrap;html=1;" vertex="1" parent="1">
          <mxGeometry x="600" y="160" width="120" height="60" as="geometry" />
        </mxCell>
      </root>
    </mxGraphModel>
  </diagram>
</mxfile>
